<mxfile host="app.diagrams.net" modified="2024-05-31T20:52:22.212Z" agent="Mozilla/5.0 (Windows NT 10.0; Win64; x64) AppleWebKit/537.36 (KHTML, like Gecko) Chrome/125.0.0.0 Safari/537.36" etag="BML5DuFXWIpedNicG6jz" version="24.4.10" type="github">
  <diagram name="Page-1" id="vJvDlfiKCZS7DFUN6EC2">
    <mxGraphModel dx="2591" dy="840" grid="1" gridSize="10" guides="1" tooltips="1" connect="1" arrows="1" fold="1" page="1" pageScale="1" pageWidth="827" pageHeight="1169" math="0" shadow="0">
      <root>
        <mxCell id="0" />
        <mxCell id="1" parent="0" />
        <mxCell id="qNsIm5-2N9fvW92eKWjR-1" value="&lt;span style=&quot;font-size: 23px;&quot;&gt;LOGO&lt;/span&gt;" style="whiteSpace=wrap;html=1;aspect=fixed;" vertex="1" parent="1">
          <mxGeometry x="40" y="80" width="180" height="180" as="geometry" />
        </mxCell>
        <mxCell id="qNsIm5-2N9fvW92eKWjR-2" value="" style="endArrow=none;html=1;rounded=0;" edge="1" parent="1">
          <mxGeometry width="50" height="50" relative="1" as="geometry">
            <mxPoint x="170" y="130" as="sourcePoint" />
            <mxPoint x="220" y="80" as="targetPoint" />
          </mxGeometry>
        </mxCell>
        <mxCell id="qNsIm5-2N9fvW92eKWjR-3" value="" style="endArrow=none;html=1;rounded=0;" edge="1" parent="1">
          <mxGeometry width="50" height="50" relative="1" as="geometry">
            <mxPoint x="40" y="260" as="sourcePoint" />
            <mxPoint x="90" y="210" as="targetPoint" />
          </mxGeometry>
        </mxCell>
        <mxCell id="qNsIm5-2N9fvW92eKWjR-6" value="" style="endArrow=none;html=1;rounded=0;" edge="1" parent="1">
          <mxGeometry width="50" height="50" relative="1" as="geometry">
            <mxPoint x="90" y="130" as="sourcePoint" />
            <mxPoint x="40" y="80" as="targetPoint" />
          </mxGeometry>
        </mxCell>
        <mxCell id="qNsIm5-2N9fvW92eKWjR-7" value="" style="endArrow=none;html=1;rounded=0;" edge="1" parent="1">
          <mxGeometry width="50" height="50" relative="1" as="geometry">
            <mxPoint x="220" y="260" as="sourcePoint" />
            <mxPoint x="170" y="210" as="targetPoint" />
          </mxGeometry>
        </mxCell>
        <mxCell id="qNsIm5-2N9fvW92eKWjR-8" value="" style="swimlane;startSize=0;" vertex="1" parent="1">
          <mxGeometry x="269" y="80" width="290" height="280" as="geometry" />
        </mxCell>
        <mxCell id="qNsIm5-2N9fvW92eKWjR-9" value="&lt;font style=&quot;font-size: 17px;&quot;&gt;LOGO&lt;/font&gt;" style="whiteSpace=wrap;html=1;aspect=fixed;" vertex="1" parent="qNsIm5-2N9fvW92eKWjR-8">
          <mxGeometry x="110" y="10" width="70" height="70" as="geometry" />
        </mxCell>
        <mxCell id="qNsIm5-2N9fvW92eKWjR-14" value="Student&amp;nbsp;" style="text;strokeColor=none;fillColor=none;align=left;verticalAlign=middle;spacingLeft=4;spacingRight=4;overflow=hidden;points=[[0,0.5],[1,0.5]];portConstraint=eastwest;rotatable=0;whiteSpace=wrap;html=1;" vertex="1" parent="qNsIm5-2N9fvW92eKWjR-8">
          <mxGeometry x="50" y="120" width="80" height="30" as="geometry" />
        </mxCell>
        <mxCell id="qNsIm5-2N9fvW92eKWjR-23" value="Admin" style="text;strokeColor=none;fillColor=none;align=left;verticalAlign=middle;spacingLeft=4;spacingRight=4;overflow=hidden;points=[[0,0.5],[1,0.5]];portConstraint=eastwest;rotatable=0;whiteSpace=wrap;html=1;" vertex="1" parent="qNsIm5-2N9fvW92eKWjR-8">
          <mxGeometry x="210" y="120" width="80" height="30" as="geometry" />
        </mxCell>
        <mxCell id="qNsIm5-2N9fvW92eKWjR-24" value="" style="ellipse;shape=doubleEllipse;whiteSpace=wrap;html=1;aspect=fixed;" vertex="1" parent="qNsIm5-2N9fvW92eKWjR-8">
          <mxGeometry x="30" y="125" width="20" height="20" as="geometry" />
        </mxCell>
        <mxCell id="qNsIm5-2N9fvW92eKWjR-25" value="" style="ellipse;shape=doubleEllipse;whiteSpace=wrap;html=1;aspect=fixed;" vertex="1" parent="qNsIm5-2N9fvW92eKWjR-8">
          <mxGeometry x="190" y="125" width="20" height="20" as="geometry" />
        </mxCell>
        <mxCell id="qNsIm5-2N9fvW92eKWjR-26" value="" style="shape=waypoint;sketch=0;fillStyle=solid;size=6;pointerEvents=1;points=[];fillColor=none;resizable=0;rotatable=0;perimeter=centerPerimeter;snapToPoint=1;" vertex="1" parent="qNsIm5-2N9fvW92eKWjR-8">
          <mxGeometry x="30" y="125" width="20" height="20" as="geometry" />
        </mxCell>
        <mxCell id="qNsIm5-2N9fvW92eKWjR-28" value="" style="strokeWidth=2;html=1;shape=mxgraph.flowchart.terminator;whiteSpace=wrap;" vertex="1" parent="qNsIm5-2N9fvW92eKWjR-8">
          <mxGeometry x="80" y="200" width="190" height="20" as="geometry" />
        </mxCell>
        <mxCell id="qNsIm5-2N9fvW92eKWjR-37" value="" style="strokeWidth=2;html=1;shape=mxgraph.flowchart.terminator;whiteSpace=wrap;" vertex="1" parent="qNsIm5-2N9fvW92eKWjR-8">
          <mxGeometry x="80" y="170" width="190" height="20" as="geometry" />
        </mxCell>
        <mxCell id="qNsIm5-2N9fvW92eKWjR-38" value="email" style="text;html=1;align=center;verticalAlign=middle;resizable=0;points=[];autosize=1;strokeColor=none;fillColor=none;" vertex="1" parent="qNsIm5-2N9fvW92eKWjR-8">
          <mxGeometry x="15" y="165" width="50" height="30" as="geometry" />
        </mxCell>
        <mxCell id="qNsIm5-2N9fvW92eKWjR-41" value="password" style="text;html=1;align=center;verticalAlign=middle;resizable=0;points=[];autosize=1;strokeColor=none;fillColor=none;" vertex="1" parent="qNsIm5-2N9fvW92eKWjR-8">
          <mxGeometry y="195" width="70" height="30" as="geometry" />
        </mxCell>
        <mxCell id="qNsIm5-2N9fvW92eKWjR-42" value="GO" style="shape=singleArrow;whiteSpace=wrap;html=1;arrowWidth=0.4;arrowSize=0.4;" vertex="1" parent="qNsIm5-2N9fvW92eKWjR-8">
          <mxGeometry x="200" y="230" width="60" height="40" as="geometry" />
        </mxCell>
        <mxCell id="qNsIm5-2N9fvW92eKWjR-43" value="CANCEL" style="shape=singleArrow;whiteSpace=wrap;html=1;arrowWidth=0.4;arrowSize=0.4;direction=west;" vertex="1" parent="qNsIm5-2N9fvW92eKWjR-8">
          <mxGeometry x="50" y="230" width="60" height="40" as="geometry" />
        </mxCell>
        <mxCell id="qNsIm5-2N9fvW92eKWjR-45" value="" style="swimlane;startSize=0;" vertex="1" parent="1">
          <mxGeometry x="-560" y="420" width="700" height="460" as="geometry" />
        </mxCell>
        <mxCell id="qNsIm5-2N9fvW92eKWjR-47" value="&lt;font style=&quot;font-size: 24px;&quot;&gt;&lt;b&gt;&amp;nbsp;CLUBS&lt;/b&gt;&lt;/font&gt;" style="text;html=1;align=center;verticalAlign=middle;resizable=0;points=[];autosize=1;strokeColor=none;fillColor=none;" vertex="1" parent="qNsIm5-2N9fvW92eKWjR-45">
          <mxGeometry x="20" y="70" width="110" height="40" as="geometry" />
        </mxCell>
        <mxCell id="qNsIm5-2N9fvW92eKWjR-46" value="&lt;font style=&quot;font-size: 24px;&quot;&gt;&lt;b&gt;HOME&lt;/b&gt;&lt;/font&gt;" style="text;html=1;align=center;verticalAlign=middle;resizable=0;points=[];autosize=1;strokeColor=none;fillColor=none;" vertex="1" parent="qNsIm5-2N9fvW92eKWjR-45">
          <mxGeometry x="30" y="23" width="100" height="40" as="geometry" />
        </mxCell>
        <mxCell id="qNsIm5-2N9fvW92eKWjR-48" value="&lt;font style=&quot;font-size: 24px;&quot;&gt;&lt;b&gt;ATTENDANCE&lt;/b&gt;&lt;/font&gt;" style="text;html=1;align=center;verticalAlign=middle;resizable=0;points=[];autosize=1;strokeColor=none;fillColor=none;" vertex="1" parent="qNsIm5-2N9fvW92eKWjR-45">
          <mxGeometry x="25" y="120" width="190" height="40" as="geometry" />
        </mxCell>
        <mxCell id="qNsIm5-2N9fvW92eKWjR-53" value="" style="shape=waypoint;sketch=0;fillStyle=solid;size=6;pointerEvents=1;points=[];fillColor=none;resizable=0;rotatable=0;perimeter=centerPerimeter;snapToPoint=1;" vertex="1" parent="qNsIm5-2N9fvW92eKWjR-45">
          <mxGeometry x="10" y="80" width="20" height="20" as="geometry" />
        </mxCell>
        <mxCell id="qNsIm5-2N9fvW92eKWjR-52" value="" style="shape=waypoint;sketch=0;fillStyle=solid;size=6;pointerEvents=1;points=[];fillColor=none;resizable=0;rotatable=0;perimeter=centerPerimeter;snapToPoint=1;" vertex="1" parent="qNsIm5-2N9fvW92eKWjR-45">
          <mxGeometry x="10" y="129.5" width="20" height="20" as="geometry" />
        </mxCell>
        <mxCell id="qNsIm5-2N9fvW92eKWjR-54" value="" style="shape=waypoint;sketch=0;fillStyle=solid;size=6;pointerEvents=1;points=[];fillColor=none;resizable=0;rotatable=0;perimeter=centerPerimeter;snapToPoint=1;" vertex="1" parent="qNsIm5-2N9fvW92eKWjR-45">
          <mxGeometry x="10" y="180" width="20" height="20" as="geometry" />
        </mxCell>
        <mxCell id="qNsIm5-2N9fvW92eKWjR-55" value="&lt;font style=&quot;font-size: 24px;&quot;&gt;&lt;b&gt;LOG OUT&lt;/b&gt;&lt;/font&gt;" style="text;html=1;align=center;verticalAlign=middle;resizable=0;points=[];autosize=1;strokeColor=none;fillColor=none;" vertex="1" parent="qNsIm5-2N9fvW92eKWjR-45">
          <mxGeometry x="30" y="220" width="130" height="40" as="geometry" />
        </mxCell>
        <mxCell id="qNsIm5-2N9fvW92eKWjR-56" value="&lt;font style=&quot;font-size: 24px;&quot;&gt;&lt;b&gt;AWARDS&lt;/b&gt;&lt;/font&gt;" style="text;html=1;align=center;verticalAlign=middle;resizable=0;points=[];autosize=1;strokeColor=none;fillColor=none;" vertex="1" parent="qNsIm5-2N9fvW92eKWjR-45">
          <mxGeometry x="30" y="170" width="130" height="40" as="geometry" />
        </mxCell>
        <mxCell id="qNsIm5-2N9fvW92eKWjR-57" value="" style="shape=waypoint;sketch=0;fillStyle=solid;size=6;pointerEvents=1;points=[];fillColor=none;resizable=0;rotatable=0;perimeter=centerPerimeter;snapToPoint=1;" vertex="1" parent="qNsIm5-2N9fvW92eKWjR-45">
          <mxGeometry x="10" y="230" width="20" height="20" as="geometry" />
        </mxCell>
        <mxCell id="qNsIm5-2N9fvW92eKWjR-58" value="" style="rounded=1;whiteSpace=wrap;html=1;" vertex="1" parent="qNsIm5-2N9fvW92eKWjR-45">
          <mxGeometry x="270" y="30" width="390" height="220" as="geometry" />
        </mxCell>
        <mxCell id="qNsIm5-2N9fvW92eKWjR-60" value="&lt;font style=&quot;font-size: 20px;&quot;&gt;&lt;b&gt;Student Name:&lt;/b&gt;&lt;/font&gt;" style="text;html=1;align=center;verticalAlign=middle;whiteSpace=wrap;rounded=0;" vertex="1" parent="qNsIm5-2N9fvW92eKWjR-45">
          <mxGeometry x="290" y="53" width="160" height="30" as="geometry" />
        </mxCell>
        <mxCell id="qNsIm5-2N9fvW92eKWjR-61" value="&lt;font style=&quot;font-size: 20px;&quot;&gt;&lt;b&gt;Student Number :&lt;/b&gt;&lt;/font&gt;" style="text;html=1;align=center;verticalAlign=middle;whiteSpace=wrap;rounded=0;" vertex="1" parent="qNsIm5-2N9fvW92eKWjR-45">
          <mxGeometry x="290" y="95" width="180" height="40" as="geometry" />
        </mxCell>
        <mxCell id="qNsIm5-2N9fvW92eKWjR-62" value="&lt;b&gt;&lt;font style=&quot;font-size: 20px;&quot;&gt;e-mail address :&lt;/font&gt;&lt;/b&gt;" style="text;html=1;align=center;verticalAlign=middle;whiteSpace=wrap;rounded=0;" vertex="1" parent="qNsIm5-2N9fvW92eKWjR-45">
          <mxGeometry x="290" y="149.5" width="180" height="30.5" as="geometry" />
        </mxCell>
        <mxCell id="qNsIm5-2N9fvW92eKWjR-66" value="&lt;b&gt;&lt;font style=&quot;font-size: 20px;&quot;&gt;club :&lt;/font&gt;&lt;/b&gt;" style="text;html=1;align=center;verticalAlign=middle;whiteSpace=wrap;rounded=0;" vertex="1" parent="qNsIm5-2N9fvW92eKWjR-45">
          <mxGeometry x="300" y="190" width="140" height="30" as="geometry" />
        </mxCell>
        <mxCell id="qNsIm5-2N9fvW92eKWjR-68" value="" style="ellipse;shape=doubleEllipse;whiteSpace=wrap;html=1;aspect=fixed;fillColor=none;" vertex="1" parent="qNsIm5-2N9fvW92eKWjR-45">
          <mxGeometry x="10" y="28" width="30" height="30" as="geometry" />
        </mxCell>
        <mxCell id="qNsIm5-2N9fvW92eKWjR-49" value="" style="shape=waypoint;sketch=0;fillStyle=solid;size=6;pointerEvents=1;points=[];fillColor=none;resizable=0;rotatable=0;perimeter=centerPerimeter;snapToPoint=1;" vertex="1" parent="qNsIm5-2N9fvW92eKWjR-45">
          <mxGeometry x="15" y="33" width="20" height="20" as="geometry" />
        </mxCell>
      </root>
    </mxGraphModel>
  </diagram>
</mxfile>
